<?xml version="1.0" encoding="UTF-8"?>
<svg width="341px" height="100px" viewBox="0 0 341 100" version="1.1" xmlns="http://www.w3.org/2000/svg" xmlns:xlink="http://www.w3.org/1999/xlink">
    <!-- Generator: Sketch 55.2 (78181) - https://sketchapp.com -->
    <title>Group 2</title>
    <desc>Created with Sketch.</desc>
    <g id="Page-1" stroke="none" stroke-width="1" fill="none" fill-rule="evenodd">
        <g id="Group-2" fill="#D8D8D8">
            <g id="minim-logo-copy">
                <path d="M36,0 L65.1015625,0 L76.3320312,43.5546875 L87.5136719,0 L116.517578,0 L116.517578,71.5820312 L98.4511719,71.5820312 L98.4511719,16.9921875 L84.4375,71.5820312 L68.0800781,71.5820312 L54.1152344,16.9921875 L54.1152344,71.5820312 L36,71.5820312 L36,0 Z M123.507812,0 L145.675781,0 L145.675781,71.5820312 L123.507812,71.5820312 L123.507812,0 Z M153.691406,0 L174.345703,0 L201.298828,39.5996094 L201.298828,0 L222.148438,0 L222.148438,71.5820312 L201.298828,71.5820312 L174.492188,32.2753906 L174.492188,71.5820312 L153.691406,71.5820312 L153.691406,0 Z M229.724609,0 L251.892578,0 L251.892578,71.5820312 L229.724609,71.5820312 L229.724609,0 Z M259.517578,0 L288.619141,0 L299.849609,43.5546875 L311.03125,0 L340.035156,0 L340.035156,71.5820312 L321.96875,71.5820312 L321.96875,16.9921875 L307.955078,71.5820312 L291.597656,71.5820312 L277.632812,16.9921875 L277.632812,71.5820312 L259.517578,71.5820312 L259.517578,0 Z" id="MINIM" fill-rule="nonzero"></path>
                <path d="M23.0350283,58.0605143 C23.4345779,61.6806908 20.3878938,66.2023083 15.3365526,69.0023125 C9.32367537,72.3353048 2.74727485,71.9667388 0.647750948,68.1790975 C-1.45177296,64.3914561 1.72062674,58.619042 7.73350399,55.2860497 C13.4148433,52.1368318 19.5992761,52.2922328 22.0350283,55.5139673 L22.0350283,1 L23.0350283,1 L23.0350283,58.0605143 Z M1.46943226,67.7236321 C3.00490496,70.4936982 8.75617238,70.2412751 14.3152476,67.1598294 C19.8743228,64.0783837 23.1360971,59.3347962 21.6006243,56.5647301 C20.0651516,53.794664 14.3138842,54.047087 8.75480903,57.1285327 C3.19573383,60.2099784 -0.0660404486,64.953566 1.46943226,67.7236321 Z" id="Combined-Shape"></path>
            </g>
            <path d="M35.8692,83.4348 L36.8502,83.4348 L40.905,97.9754 L40.9486,97.9754 L45.0688,83.4348 L46.2678,83.4348 L50.4534,97.9754 L50.497,97.9754 L54.4864,83.4348 L55.511,83.4348 L51.042,99 L49.952,99 L45.6792,84.2632 L45.6356,84.2632 L41.4282,99 L40.36,99 L35.8692,83.4348 Z M56.7536,83.4348 L67.2176,83.4348 L67.2176,84.2632 L57.7128,84.2632 L57.7128,90.498 L66.6508,90.498 L66.6508,91.3264 L57.7128,91.3264 L57.7128,98.1716 L67.3266,98.1716 L67.3266,99 L56.7536,99 L56.7536,83.4348 Z M68.9616,83.4348 L75.1964,83.4348 C76.126538,83.4348 76.9040635,83.5510655 77.529,83.7836 C78.1539365,84.0161345 78.6553314,84.3213314 79.0332,84.6992 C79.4110686,85.0770686 79.6835658,85.5094309 79.8507,85.9963 C80.0178342,86.4831691 80.1014,86.9736642 80.1014,87.4678 C80.1014,87.8892688 80.0287341,88.2889314 79.8834,88.6668 C79.7380659,89.0446686 79.530968,89.3789319 79.2621,89.6696 C78.993232,89.9602681 78.6735019,90.203699 78.3029,90.3999 C77.9322981,90.596101 77.5217356,90.7232664 77.0712,90.7814 L77.1148,90.825 C77.2165338,90.8104666 77.4563314,90.8540662 77.8342,90.9558 C78.2120686,91.0575338 78.6080979,91.2500986 79.0223,91.5335 C79.4365021,91.8169014 79.8070984,92.2092975 80.1341,92.7107 C80.4611016,93.2121025 80.6246,93.8551961 80.6246,94.64 C80.6246,95.3521369 80.4938013,95.977064 80.2322,96.5148 C79.9705987,97.052536 79.6036357,97.5066981 79.1313,97.8773 C78.6589643,98.2479019 78.0885367,98.5276657 77.42,98.7166 C76.7514633,98.9055343 76.0102707,99 75.1964,99 L68.9616,99 L68.9616,83.4348 Z M75.1964,90.498 C76.5189399,90.498 77.5071967,90.2037029 78.1612,89.6151 C78.8152033,89.0264971 79.1422,88.2526048 79.1422,87.2934 C79.1422,86.7265972 79.0332011,86.2506353 78.8152,85.8655 C78.5971989,85.4803647 78.3065351,85.1679012 77.9432,84.9281 C77.5798649,84.6882988 77.1620357,84.5175338 76.6897,84.4158 C76.2173643,84.3140662 75.7196026,84.2632 75.1964,84.2632 L69.9208,84.2632 L69.9208,90.498 L75.1964,90.498 Z M75.1964,98.1716 C76.591607,98.1716 77.6852294,97.8773029 78.4773,97.2887 C79.2693706,96.7000971 79.6654,95.8172059 79.6654,94.64 C79.6654,93.9714633 79.5273347,93.4228355 79.2512,92.9941 C78.9750653,92.5653645 78.6226355,92.2274679 78.1939,91.9804 C77.7651645,91.7333321 77.2855693,91.5625671 76.7551,91.4681 C76.2246307,91.3736329 75.7050692,91.3264 75.1964,91.3264 L69.9208,91.3264 L69.9208,98.1716 L75.1964,98.1716 Z M88.1674,91.2174 C88.1674,90.0837943 88.3345317,89.0192383 88.6688,88.0237 C89.0030683,87.0281617 89.4862968,86.163437 90.1185,85.4295 C90.7507032,84.695563 91.5282287,84.1178688 92.4511,83.6964 C93.3739713,83.2749312 94.4167275,83.0642 95.5794,83.0642 C96.4950046,83.0642 97.2870633,83.1840988 97.9556,83.4239 C98.6241367,83.6637012 99.1872977,83.9616316 99.6451,84.3177 C100.102902,84.6737684 100.477132,85.0625312 100.7678,85.484 C101.058468,85.9054688 101.280099,86.3014981 101.4327,86.6721 C101.585301,87.0427019 101.690666,87.362432 101.7488,87.6313 C101.806934,87.900168 101.836,88.0491332 101.836,88.0782 L100.8768,88.0782 C100.775066,87.4241967 100.564335,86.8392359 100.2446,86.3233 C99.9248651,85.8073641 99.5252024,85.3677352 99.0456,85.0044 C98.5659976,84.6410649 98.0319029,84.3649343 97.4433,84.176 C96.8546971,83.9870657 96.2334033,83.8926 95.5794,83.8926 C94.5620616,83.8926 93.6537373,84.088798 92.8544,84.4812 C92.0550627,84.873602 91.3792694,85.40043 90.827,86.0617 C90.2747306,86.72297 89.8532681,87.4968622 89.5626,88.3834 C89.2719319,89.2699378 89.1266,90.214595 89.1266,91.2174 C89.1266,92.220205 89.2719319,93.1648622 89.5626,94.0514 C89.8532681,94.9379378 90.2747306,95.71183 90.827,96.3731 C91.3792694,97.03437 92.0550627,97.561198 92.8544,97.9536 C93.6537373,98.346002 94.5620616,98.5422 95.5794,98.5422 C96.3351371,98.5422 97.04363,98.3859682 97.7049,98.0735 C98.36617,97.7610318 98.9438642,97.3468359 99.438,96.8309 C99.9321358,96.3149641 100.328165,95.7191034 100.6261,95.0433 C100.924035,94.3674966 101.0948,93.6662703 101.1384,92.9396 L102.0976,92.9396 C102.0104,93.869738 101.781502,94.7271961 101.4109,95.512 C101.040298,96.2968039 100.56797,96.9762305 99.9939,97.5503 C99.4198305,98.1243695 98.7549371,98.5712651 97.9992,98.891 C97.2434629,99.2107349 96.436871,99.3706 95.5794,99.3706 C94.4167275,99.3706 93.3739713,99.1598688 92.4511,98.7384 C91.5282287,98.3169312 90.7507032,97.739237 90.1185,97.0053 C89.4862968,96.271363 89.0030683,95.4066383 88.6688,94.4111 C88.3345317,93.4155617 88.1674,92.3510057 88.1674,91.2174 Z M118.2078,91.2174 C118.2078,92.3510057 118.040668,93.4155617 117.7064,94.4111 C117.372132,95.4066383 116.888903,96.271363 116.2567,97.0053 C115.624497,97.739237 114.850605,98.3169312 113.935,98.7384 C113.019395,99.1598688 111.980272,99.3706 110.8176,99.3706 C109.654928,99.3706 108.612171,99.1598688 107.6893,98.7384 C106.766429,98.3169312 105.988903,97.739237 105.3567,97.0053 C104.724497,96.271363 104.241268,95.4066383 103.907,94.4111 C103.572732,93.4155617 103.4056,92.3510057 103.4056,91.2174 C103.4056,90.0837943 103.572732,89.0192383 103.907,88.0237 C104.241268,87.0281617 104.724497,86.163437 105.3567,85.4295 C105.988903,84.695563 106.766429,84.1178688 107.6893,83.6964 C108.612171,83.2749312 109.654928,83.0642 110.8176,83.0642 C111.980272,83.0642 113.019395,83.2749312 113.935,83.6964 C114.850605,84.1178688 115.624497,84.695563 116.2567,85.4295 C116.888903,86.163437 117.372132,87.0281617 117.7064,88.0237 C118.040668,89.0192383 118.2078,90.0837943 118.2078,91.2174 Z M104.3648,91.2174 C104.3648,92.220205 104.510132,93.1648622 104.8008,94.0514 C105.091468,94.9379378 105.512931,95.71183 106.0652,96.3731 C106.617469,97.03437 107.293263,97.561198 108.0926,97.9536 C108.891937,98.346002 109.800262,98.5422 110.8176,98.5422 C111.834938,98.5422 112.739629,98.346002 113.5317,97.9536 C114.323771,97.561198 114.995931,97.03437 115.5482,96.3731 C116.100469,95.71183 116.521932,94.9379378 116.8126,94.0514 C117.103268,93.1648622 117.2486,92.220205 117.2486,91.2174 C117.2486,90.214595 117.103268,89.2699378 116.8126,88.3834 C116.521932,87.4968622 116.100469,86.72297 115.5482,86.0617 C114.995931,85.40043 114.323771,84.873602 113.5317,84.4812 C112.739629,84.088798 111.834938,83.8926 110.8176,83.8926 C109.800262,83.8926 108.891937,84.088798 108.0926,84.4812 C107.293263,84.873602 106.617469,85.40043 106.0652,86.0617 C105.512931,86.72297 105.091468,87.4968622 104.8008,88.3834 C104.510132,89.2699378 104.3648,90.214595 104.3648,91.2174 Z M120.257,83.4348 L121.456,83.4348 L131.2878,97.7138 L131.3314,97.7138 L131.3314,83.4348 L132.2906,83.4348 L132.2906,99 L131.157,99 L121.2598,84.612 L121.2162,84.612 L121.2162,99 L120.257,99 L120.257,83.4348 Z M145.1962,87.882 C145.167133,87.2134633 145.025435,86.6321358 144.7711,86.138 C144.516765,85.6438642 144.171602,85.2296683 143.7356,84.8954 C143.299598,84.5611317 142.780036,84.3104342 142.1769,84.1433 C141.573764,83.9761658 140.916137,83.8926 140.204,83.8926 C139.767998,83.8926 139.299303,83.9434662 138.7979,84.0452 C138.296497,84.1469338 137.831435,84.3249654 137.4027,84.5793 C136.973965,84.8336346 136.621535,85.1751645 136.3454,85.6039 C136.069265,86.0326355 135.9312,86.5667301 135.9312,87.2062 C135.9312,87.8311365 136.083798,88.339798 136.389,88.7322 C136.694202,89.124602 137.093864,89.4406988 137.588,89.6805 C138.082136,89.9203012 138.64893,90.1128659 139.2884,90.2582 C139.92787,90.4035341 140.574597,90.5415993 141.2286,90.6724 C141.897137,90.8032007 142.547497,90.9594324 143.1797,91.1411 C143.811903,91.3227676 144.378697,91.5698318 144.8801,91.8823 C145.381503,92.1947682 145.784798,92.6016975 146.09,93.1031 C146.395202,93.6045025 146.5478,94.2330629 146.5478,94.9888 C146.5478,95.8026707 146.373402,96.4857306 146.0246,97.038 C145.675798,97.5902694 145.236169,98.0407983 144.7057,98.3896 C144.175231,98.7384017 143.586637,98.9890992 142.9399,99.1417 C142.293163,99.2943008 141.67187,99.3706 141.076,99.3706 C140.160395,99.3706 139.302937,99.272501 138.5036,99.0763 C137.704263,98.880099 137.00667,98.5603689 136.4108,98.1171 C135.81493,97.6738311 135.346235,97.1034035 135.0047,96.4058 C134.663165,95.7081965 134.499667,94.858005 134.5142,93.8552 L135.4734,93.8552 C135.4298,94.712671 135.553332,95.4356971 135.844,96.0243 C136.134668,96.6129029 136.537964,97.0961314 137.0539,97.474 C137.569836,97.8518686 138.176597,98.1243658 138.8742,98.2915 C139.571803,98.4586342 140.305729,98.5422 141.076,98.5422 C141.541069,98.5422 142.038831,98.4840672 142.5693,98.3678 C143.099769,98.2515328 143.586631,98.0553347 144.0299,97.7792 C144.473169,97.5030653 144.843765,97.1397356 145.1417,96.6892 C145.439635,96.2386644 145.5886,95.6718701 145.5886,94.9888 C145.5886,94.3347967 145.436002,93.8007021 145.1308,93.3865 C144.825598,92.9722979 144.422303,92.6380346 143.9209,92.3837 C143.419497,92.1293654 142.852703,91.9259008 142.2205,91.7733 C141.588297,91.6206992 140.937937,91.4790007 140.2694,91.3482 C139.615397,91.2173993 138.96867,91.0648009 138.3292,90.8904 C137.68973,90.7159991 137.122936,90.4798348 136.6288,90.1819 C136.134664,89.8839652 135.735002,89.4988357 135.4298,89.0265 C135.124598,88.5541643 134.972,87.9474037 134.972,87.2062 C134.972,86.4649963 135.128232,85.8291693 135.4407,85.2987 C135.753168,84.7682307 136.160097,84.3395016 136.6615,84.0125 C137.162903,83.6854984 137.726064,83.4457008 138.351,83.2931 C138.975936,83.1404992 139.593597,83.0642 140.204,83.0642 C141.017871,83.0642 141.77723,83.1550324 142.4821,83.3367 C143.18697,83.5183676 143.804631,83.8017647 144.3351,84.1869 C144.865569,84.5720353 145.290665,85.0697969 145.6104,85.6802 C145.930135,86.2906031 146.1118,87.024529 146.1554,87.882 L145.1962,87.882 Z M149.7306,83.4348 L149.7306,92.7652 C149.7306,93.0704015 149.745133,93.4264646 149.7742,93.8334 C149.803267,94.2403354 149.875933,94.6581645 149.9922,95.0869 C150.108467,95.5156355 150.271966,95.9370979 150.4827,96.3513 C150.693434,96.7655021 150.980465,97.1360984 151.3438,97.4631 C151.707135,97.7901016 152.154031,98.051699 152.6845,98.2479 C153.214969,98.444101 153.858063,98.5422 154.6138,98.5422 C155.573005,98.5422 156.375963,98.407768 157.0227,98.1389 C157.669437,97.870032 158.192631,97.4849025 158.5923,96.9835 C158.991969,96.4820975 159.278999,95.8753369 159.4534,95.1632 C159.627801,94.4510631 159.715,93.6517378 159.715,92.7652 L159.715,83.4348 L160.6742,83.4348 L160.6742,92.7652 C160.6742,93.695338 160.576101,94.5600627 160.3799,95.3594 C160.183699,96.1587373 159.853069,96.8563304 159.388,97.4522 C158.922931,98.0480696 158.301637,98.516765 157.5241,98.8583 C156.746563,99.199835 155.776472,99.3706 154.6138,99.3706 C153.698195,99.3706 152.913403,99.2543345 152.2594,99.0218 C151.605397,98.7892655 151.064035,98.4877019 150.6353,98.1171 C150.206565,97.7464981 149.868668,97.3214024 149.6216,96.8418 C149.374532,96.3621976 149.185601,95.8789691 149.0548,95.3921 C148.923999,94.9052309 148.844067,94.4329023 148.815,93.9751 C148.785933,93.5172977 148.7714,93.1140017 148.7714,92.7652 L148.7714,83.4348 L149.7306,83.4348 Z M163.421,83.4348 L164.3802,83.4348 L164.3802,98.1716 L173.2092,98.1716 L173.2092,99 L163.421,99 L163.421,83.4348 Z M172.6424,84.2632 L172.6424,83.4348 L184.567,83.4348 L184.567,84.2632 L179.0734,84.2632 L179.0734,99 L178.1142,99 L178.1142,84.2632 L172.6424,84.2632 Z M185.6352,83.4348 L186.5944,83.4348 L186.5944,99 L185.6352,99 L185.6352,83.4348 Z M189.3412,83.4348 L190.5402,83.4348 L200.372,97.7138 L200.4156,97.7138 L200.4156,83.4348 L201.3748,83.4348 L201.3748,99 L200.2412,99 L190.344,84.612 L190.3004,84.612 L190.3004,99 L189.3412,99 L189.3412,83.4348 Z M203.5548,91.3046 C203.5548,90.2000611 203.718298,89.1500383 204.0453,88.1545 C204.372302,87.1589617 204.848264,86.2833371 205.4732,85.5276 C206.098136,84.7718629 206.864762,84.1723689 207.7731,83.7291 C208.681438,83.2858311 209.724194,83.0642 210.9014,83.0642 C211.700737,83.0642 212.46373,83.1804655 213.1904,83.413 C213.91707,83.6455345 214.56743,83.9870644 215.1415,84.4376 C215.71557,84.8881356 216.198798,85.4331301 216.5912,86.0726 C216.983602,86.7120699 217.245199,87.4387293 217.376,88.2526 L216.4604,88.2526 C216.097065,86.8864598 215.443071,85.8182705 214.4984,85.048 C213.553729,84.2777295 212.362007,83.8926 210.9232,83.8926 C209.876795,83.8926 208.953937,84.0960646 208.1546,84.503 C207.355263,84.9099354 206.686736,85.4549299 206.149,86.138 C205.611264,86.8210701 205.204335,87.6094955 204.9282,88.5033 C204.652065,89.3971045 204.514,90.3308618 204.514,91.3046 C204.514,92.2928716 204.648432,93.2266289 204.9173,94.1059 C205.186168,94.9851711 205.585831,95.7517967 206.1163,96.4058 C206.646769,97.0598033 207.311663,97.5793647 208.111,97.9645 C208.910337,98.3496353 209.847728,98.5422 210.9232,98.5422 C211.853338,98.5422 212.688996,98.3896015 213.4302,98.0844 C214.171404,97.7791985 214.799964,97.3504694 215.3159,96.7982 C215.831836,96.2459306 216.220599,95.5810372 216.4822,94.8035 C216.743801,94.0259628 216.8528,93.1576048 216.8092,92.1984 L211.0758,92.1984 L211.0758,91.37 L217.6376,91.37 L217.6376,99 L216.8092,99 L216.8092,95.6864 L216.7656,95.6864 C216.576666,96.2532028 216.293269,96.7654977 215.9154,97.2233 C215.537531,97.6811023 215.090636,98.0662318 214.5747,98.3787 C214.058764,98.6911682 213.484703,98.9345991 212.8525,99.109 C212.220297,99.2834009 211.56267,99.3706 210.8796,99.3706 C209.702394,99.3706 208.659638,99.1598688 207.7513,98.7384 C206.842962,98.3169312 206.076336,97.7428703 205.4514,97.0162 C204.826464,96.2895297 204.354135,95.4357049 204.0344,94.4547 C203.714665,93.4736951 203.5548,92.4236723 203.5548,91.3046 Z M226.3358,83.4348 L227.7092,83.4348 L233.7914,97.9318 L233.835,97.9318 L239.8518,83.4348 L241.2252,83.4348 L241.2252,99 L240.266,99 L240.266,84.612 L240.2224,84.612 L234.2928,99 L233.3336,99 L227.3386,84.612 L227.295,84.612 L227.295,99 L226.3358,99 L226.3358,83.4348 Z M248.5936,83.4348 L249.64,83.4348 L255.7876,99 L254.763,99 L252.801,94.0078 L245.3454,94.0078 L243.3616,99 L242.337,99 L248.5936,83.4348 Z M252.4958,93.1794 L249.1604,84.3722 L249.1168,84.3722 L245.6506,93.1794 L252.4958,93.1794 Z M256.8994,83.4348 L262.0006,83.4348 C263.395807,83.4348 264.554829,83.6527978 265.4777,84.0888 C266.400571,84.5248022 267.138131,85.1061297 267.6904,85.8328 C268.242669,86.5594703 268.631432,87.387862 268.8567,88.318 C269.081968,89.248138 269.1946,90.2073284 269.1946,91.1956 C269.1946,92.3001389 269.052901,93.3283619 268.7695,94.2803 C268.486099,95.2322381 268.04647,96.0569965 267.4506,96.7546 C266.85473,97.4522035 266.102638,98.0008313 265.1943,98.4005 C264.285962,98.8001687 263.206873,99 261.957,99 L256.8994,99 L256.8994,83.4348 Z M262.0442,98.1716 C262.77087,98.1716 263.501163,98.0589678 264.2351,97.8337 C264.969037,97.6084322 265.63393,97.2305693 266.2298,96.7001 C266.82567,96.1696307 267.308898,95.4575045 267.6795,94.5637 C268.050102,93.6698955 268.2354,92.5472068 268.2354,91.1956 C268.2354,90.1346614 268.130034,89.2263371 267.9193,88.4706 C267.708566,87.7148629 267.432435,87.0790359 267.0909,86.5631 C266.749365,86.0471641 266.356969,85.6402348 265.9137,85.3423 C265.470431,85.0443652 265.012636,84.8154675 264.5403,84.6556 C264.067964,84.4957325 263.595636,84.3903669 263.1233,84.3395 C262.650964,84.2886331 262.225869,84.2632 261.848,84.2632 L257.8586,84.2632 L257.8586,98.1716 L262.0442,98.1716 Z M271.44,83.4348 L281.904,83.4348 L281.904,84.2632 L272.3992,84.2632 L272.3992,90.498 L281.3372,90.498 L281.3372,91.3264 L272.3992,91.3264 L272.3992,98.1716 L282.013,98.1716 L282.013,99 L271.44,99 L271.44,83.4348 Z M289.7084,83.4348 L300.1724,83.4348 L300.1724,84.2632 L290.6676,84.2632 L290.6676,90.498 L299.6056,90.498 L299.6056,91.3264 L290.6676,91.3264 L290.6676,98.1716 L300.2814,98.1716 L300.2814,99 L289.7084,99 L289.7084,83.4348 Z M306.538,83.4348 L307.5844,83.4348 L313.732,99 L312.7074,99 L310.7454,94.0078 L303.2898,94.0078 L301.306,99 L300.2814,99 L306.538,83.4348 Z M310.4402,93.1794 L307.1048,84.3722 L307.0612,84.3722 L303.595,93.1794 L310.4402,93.1794 Z M325.0026,87.882 C324.973533,87.2134633 324.831835,86.6321358 324.5775,86.138 C324.323165,85.6438642 323.978002,85.2296683 323.542,84.8954 C323.105998,84.5611317 322.586436,84.3104342 321.9833,84.1433 C321.380164,83.9761658 320.722537,83.8926 320.0104,83.8926 C319.574398,83.8926 319.105703,83.9434662 318.6043,84.0452 C318.102897,84.1469338 317.637835,84.3249654 317.2091,84.5793 C316.780365,84.8336346 316.427935,85.1751645 316.1518,85.6039 C315.875665,86.0326355 315.7376,86.5667301 315.7376,87.2062 C315.7376,87.8311365 315.890198,88.339798 316.1954,88.7322 C316.500602,89.124602 316.900264,89.4406988 317.3944,89.6805 C317.888536,89.9203012 318.45533,90.1128659 319.0948,90.2582 C319.73427,90.4035341 320.380997,90.5415993 321.035,90.6724 C321.703537,90.8032007 322.353897,90.9594324 322.9861,91.1411 C323.618303,91.3227676 324.185097,91.5698318 324.6865,91.8823 C325.187903,92.1947682 325.591198,92.6016975 325.8964,93.1031 C326.201602,93.6045025 326.3542,94.2330629 326.3542,94.9888 C326.3542,95.8026707 326.179802,96.4857306 325.831,97.038 C325.482198,97.5902694 325.042569,98.0407983 324.5121,98.3896 C323.981631,98.7384017 323.393037,98.9890992 322.7463,99.1417 C322.099563,99.2943008 321.47827,99.3706 320.8824,99.3706 C319.966795,99.3706 319.109337,99.272501 318.31,99.0763 C317.510663,98.880099 316.81307,98.5603689 316.2172,98.1171 C315.62133,97.6738311 315.152635,97.1034035 314.8111,96.4058 C314.469565,95.7081965 314.306067,94.858005 314.3206,93.8552 L315.2798,93.8552 C315.2362,94.712671 315.359732,95.4356971 315.6504,96.0243 C315.941068,96.6129029 316.344364,97.0961314 316.8603,97.474 C317.376236,97.8518686 317.982997,98.1243658 318.6806,98.2915 C319.378203,98.4586342 320.112129,98.5422 320.8824,98.5422 C321.347469,98.5422 321.845231,98.4840672 322.3757,98.3678 C322.906169,98.2515328 323.393031,98.0553347 323.8363,97.7792 C324.279569,97.5030653 324.650165,97.1397356 324.9481,96.6892 C325.246035,96.2386644 325.395,95.6718701 325.395,94.9888 C325.395,94.3347967 325.242402,93.8007021 324.9372,93.3865 C324.631998,92.9722979 324.228703,92.6380346 323.7273,92.3837 C323.225897,92.1293654 322.659103,91.9259008 322.0269,91.7733 C321.394697,91.6206992 320.744337,91.4790007 320.0758,91.3482 C319.421797,91.2173993 318.77507,91.0648009 318.1356,90.8904 C317.49613,90.7159991 316.929336,90.4798348 316.4352,90.1819 C315.941064,89.8839652 315.541402,89.4988357 315.2362,89.0265 C314.930998,88.5541643 314.7784,87.9474037 314.7784,87.2062 C314.7784,86.4649963 314.934632,85.8291693 315.2471,85.2987 C315.559568,84.7682307 315.966497,84.3395016 316.4679,84.0125 C316.969303,83.6854984 317.532464,83.4457008 318.1574,83.2931 C318.782336,83.1404992 319.399997,83.0642 320.0104,83.0642 C320.824271,83.0642 321.58363,83.1550324 322.2885,83.3367 C322.99337,83.5183676 323.611031,83.8017647 324.1415,84.1869 C324.671969,84.5720353 325.097065,85.0697969 325.4168,85.6802 C325.736535,86.2906031 325.9182,87.024529 325.9618,87.882 L325.0026,87.882 Z M339.1072,83.4348 L340.1754,83.4348 L333.9188,92.4818 L333.9188,99 L332.9596,99 L332.9596,92.4818 L326.7466,83.4348 L327.8366,83.4348 L333.461,91.6752 L339.1072,83.4348 Z" id="WEBCONSULTINGMADEEASY" fill-rule="nonzero"></path>
        </g>
    </g>
</svg>